<svg width="32" height="32" viewBox="0 0 32 32" fill="none" xmlns="http://www.w3.org/2000/svg">
<rect width="32" height="32" rx="2" fill="#0F162A" fill-opacity="0.25"/>
<path d="M21.8339 13.001C22.2759 13.001 22.7376 13.001 23.1875 13.001V10.0625C22.7376 10.0627 22.2759 10.0631 21.8339 10.0631H8.8125C8.82121 11.1742 8.83863 13.001 8.83863 13.001C9.57774 13.001 9.73029 13.001 10.1672 13.001M21.8339 13.001V21.001C21.8339 21.443 21.8339 21.9381 21.8339 22.6677C21 22.6677 20.6092 22.6677 20.1672 22.6677H11.8339C11.3919 22.6677 10.375 22.6677 10.1672 22.6677C10.1672 22.2506 10.1672 21.443 10.1672 21.001V13.001M21.8339 13.001H16.0006H10.1672" stroke="white" stroke-width="1.25" stroke-linecap="round" stroke-linejoin="round"/>
<g clip-path="url(#clip0_40005500_37651)">
<path d="M16 16.25V19.75M14.25 18H17.75" stroke="white" stroke-width="1.25" stroke-linecap="round" stroke-linejoin="round"/>
</g>
<defs>
<clipPath id="clip0_40005500_37651">
<rect width="6" height="6" fill="white" transform="translate(13 15)"/>
</clipPath>
</defs>
</svg>
