<svg width="32" height="32" viewBox="0 0 32 32" fill="none" xmlns="http://www.w3.org/2000/svg">
<rect width="32" height="32" rx="2" fill="#0F162A" fill-opacity="0.25"/>
<path d="M22.2511 16.4771L16.0011 22.6671L9.75106 16.4771C9.33882 16.0759 9.0141 15.5937 8.79735 15.0609C8.58061 14.5281 8.47653 13.9562 8.49168 13.3812C8.50683 12.8062 8.64087 12.2405 8.88536 11.7198C9.12986 11.1992 9.47951 10.7348 9.9123 10.3559C10.3451 9.97698 10.8517 9.6918 11.4001 9.51829C11.9485 9.34479 12.5269 9.28671 13.0989 9.34773C13.6708 9.40874 14.224 9.58752 14.7235 9.87281C15.2229 10.1581 15.6579 10.5437 16.0011 11.0054C16.3457 10.5471 16.7812 10.1648 17.2803 9.88256C17.7795 9.6003 18.3315 9.4241 18.9018 9.36499C19.4722 9.30588 20.0486 9.36514 20.595 9.53905C21.1415 9.71296 21.6461 9.99779 22.0774 10.3757C22.5086 10.7536 22.8573 11.2165 23.1014 11.7353C23.3456 12.2541 23.48 12.8178 23.4963 13.391C23.5126 13.9642 23.4104 14.5346 23.1962 15.0664C22.9819 15.5983 22.6602 16.0802 22.2511 16.4821" stroke="white" stroke-width="1.25" stroke-linecap="round" stroke-linejoin="round"/>
</svg>
