<svg width="20" height="20" viewBox="0 0 20 20" fill="none" xmlns="http://www.w3.org/2000/svg">
<path d="M16.6107 10.8664C16.4534 12.0664 15.9723 13.2009 15.2192 14.1482C14.4661 15.0956 13.4693 15.82 12.3357 16.2439C11.2021 16.6678 9.97454 16.7752 8.7846 16.5544C7.59467 16.3336 6.48727 15.7931 5.58118 14.9908C4.67509 14.1886 4.00448 13.1547 3.64128 12.0003C3.27808 10.8458 3.23599 9.6143 3.51952 8.43774C3.80305 7.26118 4.4015 6.184 5.2507 5.32172C6.0999 4.45943 7.16781 3.84457 8.33989 3.54309C11.5891 2.70975 14.9524 4.38225 16.1941 7.49892M16.6673 3.33252V7.49919H12.5007" stroke="#666670" stroke-width="1.66667" stroke-linecap="round" stroke-linejoin="round"/>
</svg>
